<?xml version="1.0" standalone="no"?>
<!DOCTYPE svg PUBLIC "-//W3C//DTD SVG 20010904//EN"
 "http://www.w3.org/TR/2001/REC-SVG-20010904/DTD/svg10.dtd">
<svg version="1.0" xmlns="http://www.w3.org/2000/svg"
 width="1080.000000pt" height="1080.000000pt" viewBox="0 0 1080.000000 1080.000000"
 preserveAspectRatio="xMidYMid meet">

<g transform="translate(0.000000,1080.000000) scale(0.100000,-0.100000)"
fill="#000000" stroke="none">
<path d="M3598 6923 c-163 -263 -481 -779 -707 -1146 l-411 -668 0 -500 0
-499 1015 0 1015 0 0 -340 0 -340 455 0 455 0 0 340 0 340 98 0 99 0 31 -82
c70 -185 233 -399 394 -516 52 -39 215 -124 283 -150 132 -49 381 -76 577 -62
304 23 608 186 772 415 70 98 140 247 161 343 l7 32 -339 0 -339 0 -30 -40
c-38 -51 -94 -91 -169 -121 -53 -20 -77 -23 -210 -24 l-150 0 -73 34 c-80 38
-156 110 -194 184 -23 47 -58 144 -58 164 0 11 138 13 807 13 l806 0 -6 160
c-19 451 -105 693 -331 929 -219 227 -470 331 -801 331 -233 0 -401 -35 -560
-116 -267 -137 -447 -340 -560 -631 l-28 -73 -94 0 -93 0 0 665 0 665 -455 0
-455 0 0 -665 0 -665 -464 0 -464 0 -35 57 -35 57 47 75 c26 42 159 258 296
481 136 223 376 613 532 868 228 371 282 466 273 477 -24 29 -715 473 -750
482 -13 3 -87 -109 -312 -474z m3337 -1845 c53 -27 136 -109 173 -169 24 -40
48 -103 61 -161 l9 -38 -450 0 -450 0 7 38 c11 63 81 197 130 246 26 28 75 61
118 82 l72 35 140 -3 c128 -3 144 -6 190 -30z"/>
<path d="M8208 6686 c-100 -36 -224 -150 -298 -275 -69 -117 -230 -588 -230
-675 0 -33 7 -52 26 -75 14 -17 33 -31 41 -31 27 0 145 68 235 135 122 92 341
323 399 422 124 210 142 379 50 467 -46 44 -148 59 -223 32z"/>
<path d="M7191 6528 c-63 -33 -84 -66 -89 -141 -5 -86 18 -149 144 -397 104
-204 144 -260 185 -260 38 0 74 50 97 135 29 109 46 256 38 340 -10 116 -31
162 -105 236 -76 76 -113 98 -179 105 -37 4 -57 0 -91 -18z"/>
<path d="M8510 5956 c-281 -100 -670 -397 -670 -511 0 -24 9 -42 31 -65 31
-31 33 -31 98 -25 192 20 530 114 696 195 99 48 152 92 176 144 22 49 24 127
5 165 -19 36 -80 90 -122 107 -50 21 -140 17 -214 -10z"/>
</g>
</svg>
