<?xml version="1.0" standalone="no"?>
<!DOCTYPE svg PUBLIC "-//W3C//DTD SVG 20010904//EN"
 "http://www.w3.org/TR/2001/REC-SVG-20010904/DTD/svg10.dtd">
<svg version="1.0" xmlns="http://www.w3.org/2000/svg"
 width="1080.000000pt" height="1080.000000pt" viewBox="0 0 1080.000000 1080.000000"
 preserveAspectRatio="xMidYMid meet">

<g transform="translate(0.000000,1080.000000) scale(0.100000,-0.100000)"
fill="#000000" stroke="none">
<path d="M3848 7328 c-24 -40 -175 -284 -335 -543 -160 -258 -457 -742 -662
-1074 l-371 -603 0 -499 0 -499 1015 0 1015 0 0 -340 0 -340 455 0 455 0 0
340 0 340 99 0 99 0 22 -62 c54 -148 148 -293 273 -421 96 -98 170 -150 310
-218 163 -79 264 -100 497 -106 222 -6 294 2 432 48 276 92 465 244 588 471
41 76 83 180 95 236 l7 32 -340 0 -339 0 -27 -39 c-66 -95 -175 -141 -353
-148 -182 -8 -280 25 -374 124 -52 55 -113 170 -125 236 l-6 37 806 0 806 0 0
74 c0 104 -18 316 -36 420 -40 233 -133 420 -293 590 -215 227 -477 336 -811
336 -219 0 -374 -31 -535 -108 -260 -123 -465 -345 -571 -619 l-36 -93 -94 0
-94 0 0 665 0 665 -455 0 -455 0 0 -665 0 -665 -464 0 -464 0 -36 56 -35 56
80 129 c43 71 116 189 161 262 45 72 165 269 268 437 102 168 291 475 419 683
185 302 230 381 221 393 -25 29 -736 484 -757 484 -5 0 -30 -33 -55 -72z
m2971 -2218 c91 -12 140 -36 209 -103 74 -72 119 -158 145 -274 l5 -23 -450 0
-451 0 6 38 c10 58 83 196 131 245 73 76 184 122 301 125 17 1 63 -3 104 -8z"/>
<path d="M8207 6685 c-101 -38 -225 -152 -298 -277 -70 -119 -229 -587 -229
-672 0 -33 7 -52 26 -75 31 -38 41 -38 107 -5 202 102 497 391 596 584 99 193
106 338 20 417 -46 41 -149 54 -222 28z"/>
<path d="M7191 6528 c-25 -13 -53 -35 -64 -49 -27 -38 -33 -132 -13 -202 18
-63 214 -454 253 -505 22 -29 30 -33 65 -30 53 4 72 29 97 130 49 191 49 384
0 485 -22 45 -121 143 -170 169 -54 27 -118 28 -168 2z"/>
<path d="M8510 5956 c-219 -78 -558 -313 -642 -445 -32 -51 -35 -87 -10 -117
36 -43 55 -47 171 -30 285 42 639 162 753 256 69 57 99 170 64 239 -19 37 -78
87 -123 106 -52 22 -137 18 -213 -9z"/>
</g>
</svg>
